<?xml version="1.0" encoding="UTF-8"?>
<svg width="200px" height="54px" viewBox="0 0 200 54" version="1.1" xmlns="http://www.w3.org/2000/svg" xmlns:xlink="http://www.w3.org/1999/xlink">
    <!-- Generator: Sketch 43.1 (39012) - http://www.bohemiancoding.com/sketch -->
    <title>Group 37</title>
    <desc>Created with Sketch.</desc>
    <defs></defs>
    <g id="website" stroke="none" stroke-width="1" fill="none" fill-rule="evenodd">
        <g id="iconos" transform="translate(-89.000000, -1643.000000)">
            <g id="Group-37" transform="translate(88.000000, 1641.000000)">
                <rect id="Rectangle-10" x="0" y="0" width="202" height="58"></rect>
                <g id="Page-1" transform="translate(1.000000, 2.000000)">
                    <g id="Group-3" transform="translate(0.000000, 0.160408)" fill="#18A9DF">
                        <path d="M197.707143,17.604858 C198.695098,15.8651829 199.207703,13.8331657 199.17521,11.6359484 C199.12507,8.22623032 197.746078,5.17876835 195.291737,3.05428423 C193.052521,1.11614352 190.054482,0.0806830357 186.846919,0.122687831 C182.251681,0.190910384 178.616106,2.218417 176.546078,5.65660813 C174.42619,2.45860549 170.718908,0.429407407 166.335154,0.429407407 C166.264846,0.429407407 166.193978,0.42997123 166.123389,0.431098876 C159.528711,0.528922123 154.906022,4.6594876 154.059524,11.2102622 L153.688095,14.0823753 C152.929272,13.5721157 152.097339,13.1746207 151.193697,12.8101093 C149.52563,12.1374688 147.60042,11.8403342 145.471569,11.8403342 L145.445518,11.8403342 C143.30098,11.8403342 141.368768,12.1464899 139.705182,12.8287154 C138.579972,13.2893586 137.561765,13.8514899 136.653641,14.5495025 C136.52423,14.3865577 136.387255,14.2176928 136.239636,14.0671521 L136.206583,14.0758914 C135.098179,12.9705169 133.632913,12.4041569 132.079132,12.4041569 L132.071289,12.4041569 L132.037115,12.4041569 L132.036555,11.9739602 C132.039356,10.2909492 131.373529,8.72577728 130.147199,7.59644031 C129.036835,6.58353274 127.663445,5.98390724 126.159244,5.98249769 L125.876891,5.92019527 L125.87493,5.92019527 C124.405462,5.92019527 122.991737,6.52574091 121.89958,7.52652629 C120.682493,8.63810284 120.013585,10.208913 120.015546,11.9037642 L120.016106,12.3483385 C119.354762,12.4241726 118.715546,12.6229201 118.119748,12.9172356 C117.291737,12.4190982 116.344398,12.1354954 115.343557,12.0926448 L115.004622,12.0903896 C114.342997,12.0909534 113.705742,12.1966701 113.109104,12.3971091 C112.682213,12.2911104 112.24944,12.1986435 111.811905,12.1191445 C110.605182,11.9020728 109.601821,11.8019942 108.718908,11.7988932 C107.028431,11.8008666 105.392857,12.0551506 103.838515,12.5603358 C102.19986,13.1016057 100.728151,13.9278879 99.4502801,15.0290337 C98.4421569,15.9049324 97.595098,16.9437758 96.9189076,18.1227292 C96.2320728,16.7419272 95.3147059,15.5787609 94.1810924,14.6597298 C92.9763305,13.6851622 91.5676471,12.9812295 90.002381,12.5696389 C88.6676471,12.216122 87.2502801,12.0371083 85.7485994,12.0399274 C85.0553221,12.0407731 84.2172269,12.1064585 83.1855742,12.2406483 L83.1452381,12.2460046 C82.057563,12.3982368 80.9880952,12.645473 79.9718487,12.979538 C78.7704482,13.3722406 77.6959384,13.9013882 76.7771709,14.5520397 C76.1385154,15.0047894 75.6015406,15.5452135 75.1796919,16.1490676 C75.0586835,16.0117768 74.9357143,15.8758955 74.8077031,15.743961 L74.7990196,15.7349398 C73.6194678,14.5241305 72.1494398,13.5518181 70.4382353,12.8636725 C68.7732493,12.1899043 66.8485994,11.8403342 64.7217087,11.8403342 L64.6908964,11.8403342 C63.1886555,11.8403342 61.6836134,12.1712981 60.204902,12.8123646 C60.1897759,12.8191305 60.1746499,12.8298431 60.1592437,12.836609 C59.4443978,12.5312989 58.6687675,12.3731467 57.8670868,12.3728647 L54.1684874,12.3787849 C52.612465,12.3821678 51.1371148,12.9750274 50.0253501,14.0375514 C49.6121849,14.4299721 49.2679272,14.8731367 48.9880952,15.349567 C48.0312325,14.3445529 46.8217087,13.5126324 45.3771709,12.9662882 C43.9508403,12.4298108 42.2869748,12.1222455 40.2948179,12.1222455 L40.2648459,12.1222455 C38.6441176,12.1222455 37.079972,12.5265064 35.617507,13.22762 C35.5317927,13.2687791 35.4469188,13.3344645 35.3628852,13.377315 C34.6007003,12.9910964 33.7477591,12.7128499 32.7317927,12.4977515 C31.8057423,12.3077432 30.7471989,12.2228879 29.5110644,12.2240155 C28.2514006,12.2251432 27.0911765,12.4489808 26.0407563,12.8887626 C25.3186275,12.5775324 24.5365546,12.4128962 23.7281513,12.4185344 L20.0343137,12.4233269 C18.4732493,12.426146 16.9953782,13.0187237 15.8735294,14.0908327 C15.6934174,14.2630805 15.5298319,14.4477325 15.3746499,14.6374588 C15.7273109,13.8306285 15.9163866,12.9496554 15.914986,12.0334435 C15.9141457,10.2988428 15.257563,8.67616088 14.0617647,7.48142047 C12.8757703,6.29992989 11.2852941,5.6382839 9.58473389,5.6382839 L9.57044818,5.6382839 C7.81302521,5.6382839 6.18893557,6.35039203 5.00910364,7.60320618 C3.85028011,8.82416435 3.23795518,10.3614271 3.23879552,12.0396455 C3.23907563,12.3982368 3.27296919,12.7520355 3.3289916,13.0962493 C2.79621849,13.361246 2.29929972,13.7054598 1.8570028,14.1249439 C0.657282913,15.2585096 -0.00182072829,16.8002829 0.000140056023,18.4644058 C0.000980392157,20.1217627 0.661204482,21.6601531 1.85840336,22.7951283 C2.37717087,23.2873456 2.97016807,23.677229 3.61078431,23.9546298 L3.61302521,25.8327234 C2.97380952,26.1112518 2.382493,26.5016991 1.86540616,26.9936344 C0.671008403,28.1311468 0.0144257703,29.6709468 0.0163865546,31.327458 C0.0175070028,32.9887617 0.678851541,34.4780995 1.87969188,35.6108194 C3.00182073,36.6753168 4.47156863,37.212358 6.01330532,37.212358 L6.0337535,37.212358 L13.1558824,37.2518256 C14.4245098,37.2492884 15.6015406,36.8543305 16.6110644,36.1419405 C17.6161064,36.843336 18.8105042,37.212358 20.0606443,37.212358 L20.0679272,37.212358 L27.185014,37.2425225 C28.5740896,37.240831 29.897619,36.7917462 30.9553221,35.93981 C31.992577,36.7914643 33.2735294,37.2633839 34.6326331,37.2633839 L38.237395,37.263102 C39.6219888,37.2608467 40.9404762,36.7965387 42.0037815,35.9409377 C43.037395,36.7914643 44.317507,37.2554904 45.6861345,37.2580276 L48.2511204,37.2546447 C48.2180672,37.5131574 48.1953782,37.7744893 48.1959384,38.0397679 C48.1970588,39.7053003 48.8586835,41.2445364 50.0603641,42.3766925 C51.1822129,43.4386526 52.6528011,44.0241825 54.2133053,44.0255921 L61.3323529,44.0154433 C62.8967787,44.0140337 64.3270308,43.4451366 65.4729692,42.3659798 C66.6738095,41.2321323 67.3337535,39.6883856 67.3320728,38.0211617 C67.3320728,37.8647009 67.3259104,37.7090858 67.3141457,37.5551622 C68.4329132,37.387143 69.477451,37.1074869 70.4371148,36.7173216 C72.1651261,36.0145165 73.6382353,35.0317735 74.8121849,33.8003846 C74.8354342,33.7758583 74.8567227,33.7502044 74.8796919,33.72596 C75.1911765,34.1575663 75.5354342,34.5629549 75.9155462,34.9362055 C76.8455182,35.8510079 77.9606443,36.585669 79.2203081,37.0620992 C80.4166667,37.517668 81.7096639,37.7761807 83.0651261,37.7761807 L83.0687675,37.7761807 C84.1791317,37.7761807 85.2757703,37.6245124 86.3407563,37.3789676 C87.2743697,37.1604863 88.182493,36.8633517 89.0595238,36.5146273 C89.1233894,36.4889734 89.1872549,36.4562717 89.2505602,36.4300539 C90.1242297,36.9363667 91.1172269,37.2022092 92.1553221,37.202773 L95.8460784,37.1957252 C97.4051821,37.1951614 98.8827731,36.6025837 100.014426,35.5214535 C100.131513,35.4092528 100.239076,35.2897224 100.345518,35.1699101 C101.384174,35.9090817 102.543838,36.5402813 103.816667,36.9654036 C105.361765,37.4745355 107.016387,37.7761807 108.739636,37.7761807 L108.754482,37.7761807 C109.264566,37.7761807 109.851401,37.6916073 110.541597,37.6115445 C111.19986,37.5365561 111.890056,37.4060311 112.592857,37.266485 L112.62451,37.2490064 C113.371569,37.0948009 114.1007,36.9039469 114.792857,36.6922315 C115.648039,36.4354102 116.458683,36.0990899 117.203221,35.6970843 C118.128711,35.2026118 118.918908,34.5956566 119.55,33.8965164 C120.457843,32.892348 120.987255,31.6877407 121.10042,30.3748795 C121.55,31.5479127 122.087815,32.5887295 122.705182,33.4694206 C123.558683,34.6917884 124.533754,35.6477498 125.603221,36.3110873 L125.643277,36.3420976 C126.916667,37.1131252 128.121429,37.4942693 129.32423,37.4942693 L129.334314,37.4942693 C130.582493,37.4942693 131.769888,37.1492098 132.883333,36.474314 C134.013585,35.7813758 134.822829,34.7704416 135.244118,33.579648 C135.288655,33.627291 135.330952,33.6754979 135.376331,33.7225771 C136.558403,34.9559393 138.035434,35.9338899 139.760084,36.6285195 C140.987535,37.1249654 142.355322,37.4390147 143.841597,37.5698216 C142.993978,38.8832467 142.458964,40.3830152 142.27381,41.9780698 C139.246639,42.1170521 136.82507,44.6863924 136.82591,47.7679656 C136.828151,50.9346761 139.388936,53.5632178 142.535994,53.5632178 L142.539356,53.5632178 C144.155602,53.5632178 145.613585,52.8815561 146.652521,51.7908409 C148.344398,52.939066 150.35084,53.5632178 152.456723,53.5632178 L152.464006,53.5632178 C154.328992,53.5632178 155.994818,53.0932715 157.557563,52.2481012 L157.641597,52.2345694 C159.123109,53.0611336 160.840476,53.5632178 162.688095,53.5632178 L162.695378,53.5632178 L162.813866,53.5632178 L190.207143,53.5632178 L190.207143,52.999395 L190.207143,42.0085162 C190.205742,40.0458492 189.768487,38.4206301 189.079412,37.0401101 C195.472129,36.0522927 199.855322,31.0669719 199.758964,24.5116867 C199.720028,21.8541081 199.003782,19.4987386 197.707143,17.604858" id="Fill-1"></path>
                    </g>
                    <path d="M12.9233053,29.523338 L11.0188235,29.5253113 L11.0042577,18.1899368 C11.0042577,17.7712984 10.8541176,17.4149625 10.5557983,17.1135992 C10.2588796,16.8130817 9.89977591,16.6633867 9.48577031,16.6628229 L5.78717087,16.6681792 C5.33142857,16.6681792 4.93787115,16.8266134 4.61238095,17.1378436 C4.28464986,17.4454089 4.12022409,17.8327551 4.12106443,18.2917068 C4.12106443,18.7506586 4.28689076,19.1337761 4.61546218,19.4452882 C4.94151261,19.754545 5.33563025,19.9090324 5.79109244,19.9079048 L7.72666667,19.9062133 L7.7389916,29.5301038 L5.80369748,29.5320772 C5.34767507,29.532641 4.95467787,29.6868466 4.62862745,29.997231 C4.30089636,30.3093069 4.1367507,30.6935521 4.13731092,31.1541953 C4.13759104,31.6125832 4.30285714,31.9954188 4.63170868,32.3038299 C4.95803922,32.6156238 5.35187675,32.7698294 5.80761905,32.7684198 L12.927507,32.7596806 C13.38493,32.7588348 13.7765266,32.6040655 14.1095798,32.2914258 C14.4311485,31.9818871 14.595014,31.5984876 14.5944538,31.1406635 C14.5941737,30.6788927 14.4291877,30.2974666 14.1056583,29.9856726 C13.772605,29.6766978 13.3810084,29.5222103 12.9233053,29.523338" id="Fill-4" fill="#FFFFFF"></path>
                    <path d="M9.36011204,13.9064344 C9.89680672,13.9055887 10.3612325,13.7127613 10.7620728,13.3186492 C11.157591,12.9301753 11.3531092,12.4435963 11.3522689,11.8651142 C11.3519888,11.2871958 11.1654342,10.806537 10.7864426,10.42793 C10.4080112,10.0512964 9.9287395,9.85987855 9.35478992,9.8610062 C8.78056022,9.86157002 8.30464986,10.0625728 7.92733894,10.462887 C7.54946779,10.8612278 7.35927171,11.3306102 7.35983193,11.8707524 C7.36039216,12.4111765 7.5519888,12.8859153 7.93042017,13.2929953 C8.30941176,13.7028944 8.78588235,13.9072802 9.36011204,13.9064344" id="Fill-6" fill="#FFFFFF"></path>
                    <path d="M49.1476751,29.4765125 L47.1501961,29.4784859 L47.1420728,23.2423243 C47.1412325,22.2832618 47.0476751,21.3898847 46.8591597,20.5605014 C46.667563,19.7302724 46.3154622,19.0040687 45.8008964,18.3872466 C45.2793277,17.769015 44.5591597,17.2846912 43.6367507,16.9359668 C42.7135014,16.5889339 41.5151821,16.4133032 40.0462745,16.4152765 C39.072605,16.4158404 38.1420728,16.6278377 37.2628011,17.0495771 C36.3793277,17.4727261 35.6507563,18.0427509 35.0751261,18.7610611 C34.8143417,18.4619531 34.5459944,18.172994 34.2672829,17.8933379 C33.9902521,17.6122722 33.6387115,17.3647541 33.2109804,17.1440174 C32.7838095,16.9246904 32.2619608,16.7515968 31.6437535,16.620508 C31.0283473,16.4942117 30.2426331,16.4273987 29.2936134,16.4288083 C28.3171429,16.429654 27.5101401,16.6529278 26.8664426,17.0910181 C26.2213445,17.5333371 25.6090196,18.1129468 25.0328291,18.8343581 L25.0322689,18.1431114 C25.0319888,17.7239091 24.8835294,17.3641902 24.5860504,17.0656461 C24.2882913,16.7659743 23.9317087,16.6179708 23.5121008,16.6190985 L19.8213445,16.6230452 C19.3614006,16.623891 18.9695238,16.7769688 18.6426331,17.0893266 C18.3168627,17.4008387 18.1543978,17.7845201 18.1546779,18.2445995 C18.1555182,18.7032693 18.3193838,19.0866687 18.6454342,19.3987446 C18.9731653,19.7054642 19.3658824,19.8613612 19.8252661,19.8602335 L21.8179832,19.8579783 L21.830028,29.5106238 L19.8373109,29.5134429 C19.3776471,29.5145705 18.9857703,29.6699037 18.6594398,29.9802881 C18.3333894,30.2915183 18.1706443,30.6746358 18.1709244,31.1344333 C18.1714846,31.5939488 18.3353501,31.9765026 18.6622409,32.2871689 C18.9891317,32.5981171 19.3815686,32.7509131 19.8415126,32.7506312 L26.9588796,32.74161 C27.4143417,32.7407643 27.8101401,32.5874045 28.1356303,32.2764563 C28.4647619,31.9638166 28.6255462,31.5809809 28.6252661,31.1209015 C28.6241457,30.6616679 28.462521,30.2785503 28.1328291,29.967884 C27.8064986,29.6580634 27.4098599,29.5032941 26.954958,29.5041398 L25.0462745,29.5069589 L25.0389916,23.5724425 C25.0384314,23.1304055 25.1527171,22.6841398 25.3826891,22.2232147 C25.6109804,21.76088 25.9168627,21.3377311 26.3036975,20.9472838 C26.6905322,20.5551451 27.1415126,20.2354576 27.6555182,19.9837107 C28.1754062,19.7359106 28.7107003,19.6093324 29.2661625,19.6082048 C30.079888,19.607359 30.7258263,19.7105386 31.2059384,19.9214083 C31.6796078,20.1308685 32.0434734,20.3981205 32.292493,20.7273929 C32.540112,21.0583569 32.6966947,21.4276608 32.7698039,21.8392514 C32.8395518,22.2480229 32.8754062,22.6401616 32.8756863,23.0215877 L32.8860504,31.2959685 C32.8863305,31.634826 33.0367507,31.9587421 33.3342297,32.2691266 C33.6328291,32.5797929 33.989972,32.7328708 34.4056583,32.7328708 L38.0101401,32.7277964 C38.4703641,32.7269506 38.8594398,32.5724632 39.1843697,32.2609511 C39.5135014,31.9505667 39.6779272,31.5668853 39.6773669,31.1070879 C39.6762465,30.6481362 39.5115406,30.2641729 39.1812885,29.9549161 C38.8555182,29.6436859 38.4661625,29.4894804 38.0062185,29.4900442 L36.0986555,29.4925814 L36.0908123,23.5259272 C36.0910924,23.0858635 36.219944,22.6418531 36.4762465,22.1919225 C36.7347899,21.7417101 37.0672829,21.3256089 37.4742857,20.9472838 C37.8807283,20.5664215 38.3319888,20.2568829 38.827507,20.0150029 C39.3263866,19.7745325 39.8213445,19.6561297 40.319944,19.6547202 C41.1311485,19.6535925 41.7784874,19.7652294 42.254958,19.9978063 C42.7308683,20.2250269 43.092493,20.5187785 43.3415126,20.8776517 C43.589972,21.2390621 43.7527171,21.6280998 43.8210644,22.0475839 C43.8919328,22.4662223 43.9266667,22.8656907 43.9272269,23.2454253 L43.9373109,31.2807453 C43.9373109,31.6207304 44.0882913,31.9443647 44.3866106,32.255031 C44.6821289,32.5656973 45.0412325,32.7184933 45.4583193,32.7190571 L49.1521569,32.7134189 C49.6087395,32.7125732 50.0014566,32.5583676 50.3286275,32.2474194 C50.6543978,31.9359073 50.8191036,31.5530717 50.8182633,31.0935561 C50.8177031,30.6329129 50.6521569,30.2497954 50.3261064,29.9411024 C49.9972549,29.6298723 49.6045378,29.4751029 49.1476751,29.4765125" id="Fill-8" fill="#FFFFFF"></path>
                    <path d="M70.0270028,26.6917637 C69.7877871,27.3517183 69.425042,27.9364024 68.9412885,28.4458163 C68.457535,28.9577674 67.8457703,29.3603368 67.1104762,29.6642373 C66.3746218,29.964191 65.5023529,30.1144497 64.490028,30.1161412 C63.260056,30.1172688 62.1802241,29.8285916 61.2592157,29.2501095 C60.3348459,28.6730369 59.6412885,27.9344291 59.1844258,27.0356956 C59.0426891,26.6373548 58.949972,26.2429608 58.8995518,25.851104 C58.8488515,25.4609387 58.8256022,25.0851508 58.825042,24.7268414 C58.8247619,24.3882659 58.8426891,24.0629401 58.882465,23.7522738 C58.9230812,23.4404798 58.9620168,23.1783022 59.000112,22.9598209 C59.0594958,22.6973614 59.1169188,22.4591463 59.1785434,22.2392555 C59.6328852,21.3379848 60.3247619,20.5974036 61.2471709,20.0177938 C62.1670588,19.4376202 63.2463305,19.1452781 64.4760224,19.1438686 C65.4886275,19.142459 66.3687395,19.2901806 67.1141176,19.5873151 C67.8589356,19.8886784 68.4732213,20.2867373 68.9460504,20.7874119 C69.4239216,21.2852674 69.7807843,21.8648771 70.0219608,22.523704 C70.2620168,23.1839405 70.3821849,23.8836445 70.3830252,24.6219704 C70.3838655,25.3414082 70.2656583,26.029272 70.0270028,26.6917637 M71.4779832,18.6237421 C70.7211204,17.8467943 69.7628571,17.2237702 68.5978711,16.7552335 C67.4379272,16.285851 66.0589356,16.0527103 64.4718207,16.0552475 C63.5611765,16.0558113 62.6085154,16.2570961 61.6858263,16.6571283 C60.7645378,17.0602616 59.955014,17.6105526 59.1146779,18.3105385 L59.1146779,18.1005146 C59.1146779,17.6815942 58.9922689,17.3204658 58.6939496,17.0219216 C58.3956303,16.7230956 58.0527731,16.5739645 57.6373669,16.5739645 L53.9494118,16.5787569 C53.4939496,16.5798846 53.1054342,16.7352178 52.779944,17.046166 C52.4519328,17.3576781 52.2894678,17.7416414 52.2903081,18.1989016 C52.2903081,18.6603905 52.4569748,19.0432262 52.7858263,19.3533287 C53.1118768,19.6628674 53.5048739,19.8162272 53.9608964,19.8156634 L55.9583754,19.8131262 L55.9791036,36.240102 L53.9819048,36.243485 C53.5258824,36.2437669 53.1334454,36.4027649 52.8085154,36.7097664 C52.4807843,37.0229699 52.3160784,37.4072151 52.3166387,37.8670126 C52.3169188,38.3245547 52.482465,38.7127467 52.8113165,39.020312 C53.1373669,39.3306964 53.5303641,39.484902 53.9861064,39.4854658 L61.107395,39.475317 C61.5622969,39.4750351 61.9519328,39.3188562 62.2816246,39.0084717 C62.6085154,38.6997788 62.7701401,38.3118687 62.7692997,37.8531989 C62.7690196,37.3928376 62.6062745,37.0097201 62.2788235,36.6984899 C61.9488515,36.3917703 61.5583754,36.2333361 61.1031933,36.2341819 L59.2239216,36.2364372 L59.2180392,31.2621109 C59.914958,31.8628641 60.7087955,32.3353476 61.6037535,32.6846357 C62.4995518,33.0313867 63.4603361,33.2041984 64.4936695,33.2030708 C66.0614566,33.2005336 67.4286835,32.9673929 68.5891877,32.4957551 C69.747451,32.0243993 70.7090756,31.3909444 71.4611765,30.6013107 C72.2138375,29.8136503 72.7819048,28.8968745 73.1564146,27.8580311 C73.5317647,26.8158047 73.7208403,25.7358022 73.7191597,24.6183056 C73.7183193,23.4785379 73.5312045,22.3878228 73.1636975,21.3498251 C72.7931092,20.3132369 72.2323249,19.4023813 71.4779832,18.6237421" id="Fill-10" fill="#FFFFFF"></path>
                    <path d="M88.8529692,28.4072508 C88.3372829,28.7072045 87.7837815,28.9815043 87.1891036,29.2318416 C86.5935854,29.4847161 85.9409244,29.6874104 85.2395238,29.8486637 C84.5322409,30.0113266 83.7302801,30.0913894 82.8414846,30.0922351 C82.1437255,30.0927989 81.5594118,29.85402 81.0826611,29.377026 C80.6061905,28.8960852 80.365014,28.3071723 80.3644538,27.6094416 C80.3636134,26.867169 80.619916,26.3377394 81.1356022,26.0166424 C81.6557703,25.6983644 82.2179552,25.5351377 82.8358824,25.5345739 L90.4003081,25.5249889 L90.4028291,27.5040068 C89.8868627,27.8067796 89.3714566,28.1058876 88.8529692,28.4072508 M95.6190756,29.4167755 L93.6204762,29.4198765 L93.6134734,23.8129411 C93.6115126,22.3952088 93.3989076,21.1999046 92.9692157,20.231539 C92.5428852,19.2623277 91.965014,18.4825608 91.240084,17.8947756 C90.5148739,17.3081181 89.659972,16.8832776 88.6762185,16.6247649 C87.6938655,16.3645607 86.6448459,16.2374187 85.5322409,16.2391101 C85.0165546,16.2396739 84.3456863,16.2963381 83.5218768,16.4034645 C82.7008683,16.5184843 81.8865826,16.7037001 81.0927451,16.9644681 C80.3003081,17.2238266 79.6210364,17.5539448 79.0560504,17.9545408 C78.4916246,18.3542912 78.2089916,18.8445351 78.2095518,19.4264001 C78.2103922,19.8859157 78.377619,20.250709 78.7148739,20.5196524 C79.0535294,20.7874683 79.4532493,20.9230676 79.907591,20.9227857 C80.1283193,20.9222219 80.4115126,20.8345475 80.7566106,20.6659645 C81.1039496,20.4962538 81.5064706,20.317522 81.9633333,20.1258223 C82.4215966,19.9332768 82.9468067,19.754545 83.5417647,19.5842705 C84.1389636,19.4128684 84.8019888,19.3246301 85.5364426,19.3232206 C87.007591,19.3215291 88.1482073,19.6274029 88.965014,20.2363315 C89.7787395,20.8427229 90.2257983,21.6298194 90.3078711,22.5874724 L82.8319608,22.5967755 C81.9947059,22.598185 81.2263585,22.7103857 80.5232773,22.9328138 C79.8171148,23.1515771 79.2162745,23.4819772 78.7193557,23.9220408 C78.2243978,24.3649236 77.8386835,24.8951989 77.5622129,25.5266804 C77.2829412,26.1564704 77.1445658,26.8728072 77.1451261,27.6739993 C77.1465266,28.489287 77.2871429,29.2363522 77.567535,29.9058917 C77.8462465,30.5740217 78.2330812,31.1530676 78.7288796,31.6404924 C79.227479,32.1304544 79.8283193,32.5096252 80.5358824,32.7771591 C81.240084,33.0455387 82.0078711,33.18142 82.8451261,33.1811381 C83.6372829,33.1805742 84.4003081,33.0945913 85.1372829,32.9245987 C85.8683754,32.7534785 86.5652941,32.5361248 87.2238375,32.2742292 C87.8736975,32.0123335 88.4720168,31.7323955 89.0098319,31.4327237 C89.5420448,31.13277 90.0098319,30.8635446 90.4067507,30.6227923 L90.4070308,31.2224178 C90.4078711,31.5607115 90.5560504,31.8840638 90.8535294,32.1955759 C91.1540896,32.5062422 91.5129132,32.6587563 91.9283193,32.6590382 L95.6238375,32.6536819 C96.0784594,32.6536819 96.4708964,32.4994764 96.7972269,32.1879643 C97.1218768,31.8761703 97.2888235,31.4924889 97.2885434,31.0335372 C97.2877031,30.5737397 97.1196359,30.1900584 96.7944258,29.8808016 C96.4678151,29.570981 96.0745378,29.4164936 95.6190756,29.4167755" id="Fill-12" fill="#FFFFFF"></path>
                    <path d="M114.921989,28.1627773 C114.643277,28.1633411 114.377731,28.2434039 114.120308,28.4035296 C113.823389,28.5828252 113.464006,28.7756526 113.04916,28.9735544 C112.630672,29.1768125 112.177731,29.3575177 111.693417,29.5286379 C111.205182,29.7003219 110.693978,29.8376128 110.157563,29.9376913 C109.62479,30.0386156 109.086695,30.0907692 108.546919,30.0918968 C107.477451,30.0924606 106.567647,29.9230319 105.822269,29.5836106 C105.078011,29.2450351 104.472969,28.8083543 104.004342,28.2817439 C103.535154,27.753442 103.203782,27.1693216 103.003221,26.528537 C102.804062,25.8900078 102.703501,25.2706485 102.703501,24.6721506 C102.702101,24.0113504 102.803782,23.3547788 103.015546,22.6905956 C103.227311,22.0312049 103.551961,21.4369357 104.009944,20.9066604 C104.465406,20.376667 105.07437,19.9422416 105.823389,19.6014107 C106.579972,19.2591703 107.503221,19.088332 108.593137,19.0869225 C109.54972,19.0855129 110.413305,19.2298515 111.186415,19.5168373 C111.960364,19.8066422 112.637115,20.1133618 113.213025,20.4288206 L113.214706,20.6098077 C113.214426,21.0281642 113.362885,21.3895746 113.662605,21.6895283 C113.963445,21.989482 114.318067,22.1355121 114.736555,22.1352302 L114.883894,22.1349482 C115.282213,22.1346663 115.629832,21.9917373 115.930392,21.7013686 C116.227031,21.4112817 116.392857,21.0665041 116.434314,20.6656262 L116.430672,17.8772407 C116.428992,17.4600119 116.288655,17.0639264 116.008263,16.7526963 C115.732913,16.4456948 115.37521,16.2294688 114.937955,16.2294688 L114.788095,16.2294688 C114.235154,16.2294688 113.806863,16.4908006 113.507423,16.9491885 C112.655882,16.6337297 111.759804,16.4045357 110.827871,16.235107 C109.892857,16.0670878 109.119468,15.9895622 108.503221,15.9904079 C107.251401,15.9920994 106.07381,16.1792885 104.971008,16.5378798 C103.870728,16.9012636 102.902661,17.443661 102.066807,18.1636627 C101.235434,18.8862016 100.576611,19.7790149 100.089776,20.85056 C99.6029412,21.919286 99.3617647,23.1658981 99.3637255,24.5841943 C99.3654062,25.9836023 99.6068627,27.2203476 100.085574,28.2865364 C100.561765,29.3552624 101.212465,30.2494853 102.037115,30.9672316 C102.866246,31.6830046 103.836275,32.2270936 104.946078,32.598089 C106.063725,32.9662652 107.251681,33.1495076 108.52507,33.14838 C108.862605,33.1478161 109.297619,33.1173697 109.832353,33.0553492 C110.369888,32.9941744 110.935154,32.9053724 111.531513,32.7869696 C112.126471,32.6643381 112.72535,32.5143613 113.320028,32.3322465 C113.916947,32.1537966 114.451401,31.9322143 114.939076,31.6683452 C115.426471,31.4089868 115.819748,31.1138256 116.117507,30.7842712 C116.416387,30.4535891 116.561765,30.0899234 116.562325,29.6890455 C116.560924,29.2306576 116.402661,28.8621994 116.085854,28.5791604 C115.766807,28.3026053 115.379692,28.1619315 114.921989,28.1627773" id="Fill-14" fill="#FFFFFF"></path>
                    <path d="M131.856162,16.5084482 L127.480252,16.5138046 L127.47381,11.7483747 C127.47465,11.289141 127.315826,10.9206829 127.010224,10.6396172 C126.701541,10.3579878 126.34944,10.2215427 125.95056,10.2212607 L125.654202,10.2218246 C125.259524,10.2218246 124.904902,10.360525 124.596499,10.6432821 C124.288936,10.9240658 124.135994,11.2928059 124.136275,11.7526033 L124.142717,16.5180332 L120.448319,16.5225438 C120.05,16.5236715 119.758683,16.674776 119.45028,16.9733201 C119.146078,17.2760929 119.058683,17.6327108 119.058683,18.0521949 L119.058683,18.2337459 C119.058683,18.6354696 119.14888,18.9895503 119.453922,19.2999347 C119.762885,19.6069362 120.085014,19.7614236 120.482493,19.7611417 L124.161485,19.756913 L124.158964,24.0436574 C124.161485,25.5837393 124.341317,26.9075951 124.713025,28.0169163 C125.080252,29.124828 125.522269,30.0494974 126.038515,30.7858499 C126.555322,31.5264311 127.095938,32.0696743 127.661204,32.420372 C128.231513,32.7654315 128.709944,32.9416262 129.108824,32.9407804 C129.563725,32.9402166 129.993978,32.8139203 130.403782,32.5655564 C130.811905,32.3152191 131.015266,31.9374578 131.014706,31.44073 C131.014146,31.1038459 130.953361,30.8272908 130.834314,30.6164211 C130.712465,30.4049876 130.545238,30.2330217 130.323669,30.0929117 C129.787535,29.7926761 129.311345,29.3847503 128.894538,28.8657515 C128.536555,28.4056721 128.208824,27.8006903 127.922829,27.0519337 C127.633754,26.3017675 127.490056,25.3500347 127.489776,24.1899694 L127.483613,19.7524024 L131.859804,19.7464823 C132.276611,19.7464823 132.634594,19.5903034 132.933193,19.2824562 C133.228992,18.971226 133.379132,18.6174272 133.378011,18.2157035 L133.379412,18.0338707 C133.378011,17.6143866 133.22619,17.2583325 132.929832,16.9564054 C132.630392,16.6578613 132.272129,16.5078844 131.856162,16.5084482" id="Fill-16" fill="#FFFFFF"></path>
                    <path d="M145.247255,30.0127079 C144.236891,30.0141175 143.365462,29.8652683 142.627927,29.5675699 C141.893754,29.2662066 141.280028,28.8639191 140.794594,28.3539414 C140.305798,27.846219 139.941653,27.2626625 139.704118,26.602426 C139.464902,25.9416257 139.344174,25.2534801 139.343333,24.5346061 C139.343613,23.8140406 139.461821,23.1213843 139.699636,22.4518448 C139.93577,21.7803319 140.292633,21.1950839 140.767983,20.695537 C141.247535,20.1937347 141.854258,19.7937025 142.598235,19.4909296 C143.343053,19.1918217 144.223445,19.0424086 145.23381,19.0409991 C146.248655,19.0395895 147.127647,19.1867473 147.873305,19.4836 C148.617283,19.7849632 149.231289,20.183304 149.705798,20.6842605 C150.182549,21.182116 150.542773,21.7614439 150.780588,22.4205527 C151.020084,23.0802253 151.139972,23.780775 151.139972,24.5185371 C151.140532,25.2385388 151.023165,25.9261206 150.78507,26.5883304 C150.549216,27.2494126 150.18535,27.833533 149.702997,28.3432288 C149.218123,28.8543341 148.607479,29.2574673 147.870504,29.560804 C147.13465,29.8607577 146.262661,30.0115803 145.247255,30.0127079 M152.222045,30.499287 C152.973866,29.710217 153.538571,28.794005 153.916162,27.7548797 C154.288151,26.7129353 154.478067,25.6337785 154.476947,24.5148723 C154.475546,23.3753865 154.292073,22.2849533 153.919804,21.2472375 C153.551176,20.2100856 152.989832,19.2983842 152.23577,18.5205907 C151.478067,17.7425153 150.518123,17.120055 149.358179,16.6518002 C148.194594,16.1826997 146.821765,15.9498409 145.229608,15.9518142 C143.641653,15.9535057 142.271064,16.1900293 141.120364,16.661949 C139.969664,17.1330229 139.013081,17.7639406 138.247535,18.5541381 C137.488151,19.34349 136.920644,20.256319 136.555658,21.2841679 C136.188711,22.3148359 136.006639,23.3985032 136.008599,24.5385528 C136.00972,25.6568953 136.201036,26.7363339 136.578067,27.7771507 C136.956218,28.8148665 137.522605,29.7299508 138.280308,30.5167655 C139.03437,31.3035801 139.997115,31.9350616 141.157899,32.4027526 C142.319244,32.872135 143.683669,33.1016109 145.250896,33.1002013 C146.821485,33.0971003 148.187871,32.8648053 149.349216,32.3926038 C150.51028,31.9223756 151.469384,31.2875112 152.222045,30.499287" id="Fill-18" fill="#FFFFFF"></path>
                    <path d="M142.312185,44.7540511 C140.785014,44.7554606 139.545798,46.0533806 139.546359,47.5415908 C139.547479,49.0785716 140.788655,50.3265933 142.315826,50.3257475 C143.842437,50.3246199 145.083613,49.0749067 145.082213,47.5379259 C145.081092,46.0497158 143.839356,44.7532054 142.312185,44.7540511" id="Fill-20" fill="#FFFFFF"></path>
                    <path d="M152.262241,46.916255 C150.022465,46.9176645 148.442073,45.2580522 148.440392,42.9799264 C148.438992,40.9394519 150.040952,39.087858 152.115742,39.0864484 C153.388852,39.0856027 154.426667,39.6068568 155.275966,40.5788872 L155.274006,37.8265865 C154.424986,37.328731 153.340112,37.0922073 152.350196,37.0930531 C148.954958,37.0953084 146.316303,39.6358937 146.318824,43.076622 C146.320784,46.3981019 148.986891,48.9116237 152.240112,48.9093684 C153.348235,48.9085227 154.314902,48.6945519 155.281008,48.1718882 L155.279048,45.4429861 C154.478207,46.3451025 153.488571,46.9154092 152.262241,46.916255" id="Fill-22" fill="#FFFFFF"></path>
                    <path d="M162.470224,46.8619588 C160.371905,46.8633684 158.696835,45.0850714 158.695154,42.996672 C158.693754,40.8848738 160.366583,39.1280021 162.464902,39.1265926 C164.562941,39.125183 166.238571,40.8797994 166.239972,42.9918795 C166.241092,45.0797151 164.568263,46.8605493 162.470224,46.8619588 M162.463501,37.0861181 C159.162941,37.0883733 156.571064,39.6529211 156.573585,42.9983634 C156.575826,46.3438057 159.170784,48.9044067 162.471345,48.9024334 C165.772185,48.9001781 168.363782,46.3356303 168.361821,42.990188 C168.3593,39.6450276 165.764342,37.0838628 162.463501,37.0861181" id="Fill-24" fill="#FFFFFF"></path>
                    <path d="M181.889664,37.0726991 C180.498627,37.0738267 179.17902,37.8578223 178.495826,39.0446691 C177.787703,37.811025 176.749888,37.0617045 175.311793,37.0628322 C174.109552,37.0636779 173.001989,37.9364755 172.389944,38.7822097 L172.342605,38.7822097 L172.341485,37.3968972 L170.219636,37.4056364 L170.227199,48.5137903 L172.349048,48.5143542 L172.345126,43.0579595 C172.344286,41.3256141 172.53112,38.9770104 174.794146,38.9753189 C176.751289,38.9739094 176.823557,41.1807116 176.824678,42.6280446 L176.828599,48.5129446 L178.950168,48.5115351 L178.946246,43.0542946 C178.945406,41.3459117 179.108992,38.9727817 181.372017,38.9710903 C183.234762,38.9699626 183.424958,40.7973122 183.425518,42.2209646 L183.42972,48.5087159 L185.551569,48.5070245 L185.547087,41.8632191 C185.545406,39.3480058 184.789384,37.0707257 181.889664,37.0726991" id="Fill-26" fill="#FFFFFF"></path>
                    <path d="M166.160392,30.034838 C163.57916,30.0731779 161.224258,28.4482407 160.862353,25.7830506 L157.599888,25.8315394 C157.88084,30.3026538 161.722577,33.0603108 165.953109,32.9974446 C170.793165,32.9252753 174.548627,29.8016973 174.473838,24.7140427 C174.43098,21.7914674 173.209972,19.2469354 170.538263,18.0237219 C172.813894,16.690563 173.92958,14.5085689 173.890364,11.8383044 C173.823417,7.29191964 170.269076,4.56555473 165.966555,4.62954861 C161.520616,4.69579778 158.723697,7.11938988 158.143866,11.6034722 L161.478039,11.5535739 C161.802409,9.20299686 163.464594,7.62626653 165.902409,7.58989997 C168.591485,7.55015046 170.627339,9.43275463 170.667395,12.1749066 C170.715854,15.4586103 168.32986,16.5766708 165.425658,16.6200852 L165.466835,19.4344064 C168.797647,19.1321974 171.194006,21.1537839 171.245266,24.6179109 C171.288403,27.5765708 169.172437,29.9900141 166.160392,30.034838" id="Fill-28" fill="#FFFFFF"></path>
                    <path d="M191.261569,17.7152827 C193.537199,16.3821238 194.652605,14.2001297 194.613109,11.5298652 C194.546443,6.98348041 190.991821,4.25711549 186.68986,4.32139129 C182.243922,4.38735855 179.446443,6.81123256 178.867171,11.295033 L182.201345,11.2454166 C182.525434,8.89455762 184.187619,7.3178273 186.625714,7.28174264 C189.31479,7.24171123 191.350364,9.12403348 191.3907,11.8664673 C191.43888,15.150171 189.052885,16.2682316 186.148683,16.3116459 L186.19014,19.1262491 C189.520672,18.8237582 191.917311,20.8453447 191.968291,24.3094716 C192.011429,27.2681315 189.894902,29.6815748 186.883697,29.7263987 C184.302185,29.7647387 181.947563,28.1398015 181.585378,25.4746114 L178.322913,25.5231001 C178.603585,29.9942145 182.445602,32.7521535 186.676134,32.6890054 C191.51619,32.6168361 195.271653,29.493258 195.196863,24.4056034 C195.154006,21.4830282 193.932997,18.9384961 191.261569,17.7152827" id="Fill-30" fill="#FFFFFF"></path>
                </g>
            </g>
        </g>
    </g>
</svg>